<?xml version="1.0" encoding="utf-8"?>
<!-- Generator: Adobe Illustrator 18.0.0, SVG Export Plug-In . SVG Version: 6.00 Build 0)  -->
<!DOCTYPE svg PUBLIC "-//W3C//DTD SVG 1.1//EN" "http://www.w3.org/Graphics/SVG/1.1/DTD/svg11.dtd">
<svg version="1.1" id="Layer_1" xmlns="http://www.w3.org/2000/svg" xmlns:xlink="http://www.w3.org/1999/xlink" x="0px" y="0px"
	 viewBox="0 0 131.9 31.2" enable-background="new 0 0 131.9 31.2" xml:space="preserve">
<g>
	<path fill="#FFFFFF" d="M32.9,15.9c0-4.7-2.6-7.5-6.9-7.5c-2.7,0-4.9,1.1-6.7,3.5l-0.1,0.1l0-0.1c-1.1-2.2-3.2-3.5-5.9-3.5
		c-3.1,0-4.9,1.8-6,3.4l-0.1,0.2v-1.1c0-1.3-1-2.2-2.2-2.2c-1.2,0-2.2,1-2.2,2.2v15.7c0,1.2,1,2.2,2.2,2.2c1.3,0,2.2-1,2.2-2.2v-9.2
		c0-3,1.7-5,4.3-5c2.6,0,4.1,1.8,4.1,4.9v9.3c0,1.2,1,2.2,2.2,2.2c1.2,0,2.2-1,2.2-2.2v-9.2c0-3.1,1.7-5,4.3-5
		c2.6,0,4.1,1.7,4.1,4.9v9.2c0,1.2,1,2.2,2.2,2.2s2.2-0.9,2.2-2.2V15.9z"/>
	<path fill="#FFFFFF" d="M47.3,8.4c-5.5,0-9.7,4.4-9.7,10.3v0.1c0,5.9,4.3,10.3,10.1,10.3c2.8,0,5.1-0.9,7.1-2.6
		c0.2-0.2,0.6-0.7,0.6-1.3c0-1-0.8-1.8-1.7-1.8c-0.5,0-0.8,0.1-1.1,0.4c-1.4,1.2-3,1.7-4.7,1.7c-3.1,0-5.3-2-5.8-5.1l0-0.1h12.5
		c1.2,0,2.1-0.9,2.1-2.1C56.7,13.4,53.4,8.4,47.3,8.4z M42.1,17.3L42.1,17.3c0.4-3.3,2.5-5.4,5.2-5.4c2.8,0,4.8,2,5.1,5.3l0,0.1
		H42.1z"/>
	<path fill="#FFFFFF" d="M81,3.2C81,2,80,1,78.7,1c-1.2,0-2.2,1-2.2,2.2V12l-0.1-0.1c-1.8-2.3-4-3.5-6.7-3.5
		c-4.6,0-9.2,3.5-9.2,10.3v0.1c0,6.7,4.7,10.3,9.2,10.3c2.8,0,5-1.2,6.7-3.7l0.1-0.2v1.4c0,1.2,1,2.2,2.2,2.2c1.2,0,2.2-1,2.2-2.2
		V3.2z M76.6,18.7c0,3.6-2.6,6.4-5.8,6.4c-3.3,0-5.8-2.8-5.8-6.4v-0.1c0-1.9,0.6-3.5,1.7-4.7c1.1-1.1,2.5-1.7,4.1-1.7
		C74.1,12.2,76.6,15,76.6,18.7L76.6,18.7z"/>
	<path fill="#FFFFFF" d="M92.1,3.2c0-1.2-1-2.2-2.2-2.2c-1.2,0-2.2,1-2.2,2.2v23.3c0,1.2,1,2.2,2.2,2.2c1.3,0,2.2-1,2.2-2.2V3.2z"/>
	<g>
		<path fill="#FFFFFF" d="M103.8,10.8c0-1.3-1-2.2-2.2-2.2c-1.2,0-2.2,1-2.2,2.2v15.7c0,1.2,1,2.2,2.2,2.2c1.3,0,2.2-1,2.2-2.2V10.8
			z"/>
		<path fill="#FFFFFF" d="M99,3.6c0,1.3,1.1,2.2,2.5,2.2c1.5,0,2.5-0.9,2.5-2.2V3.4c0-1.3-1-2.2-2.5-2.2c-1.5,0-2.5,0.9-2.5,2.2V3.6
			z"/>
	</g>
	<path fill="#FFFFFF" d="M129.4,18l1.4-1.6c0.2-0.3,0.3-0.6,0.1-0.9c-0.1-0.3-0.5-0.5-0.8-0.5h-2.7l1.9-1.9c0.2-0.2,0.3-0.6,0.2-0.9
		c-0.1-0.3-0.4-0.5-0.8-0.6l-2.1-0.1l-0.1-2.1c0-0.3-0.2-0.6-0.6-0.8c-0.3-0.1-0.7,0-0.9,0.2l-1.9,1.9V8c0-0.3-0.2-0.7-0.5-0.8
		c-0.3-0.1-0.7-0.1-0.9,0.1l-1.6,1.4l-1.6-1.4c-0.3-0.2-0.6-0.3-1-0.1C117.2,7.3,117,7.6,117,8v2.7l-1.9-1.9
		c-0.2-0.2-0.6-0.3-0.9-0.2c-0.3,0.1-0.5,0.4-0.6,0.8l-0.1,2.1l-2.1,0.1c-0.3,0-0.6,0.2-0.8,0.6c-0.1,0.3,0,0.7,0.2,0.9l1.9,1.9
		h-2.7c-0.3,0-0.7,0.2-0.8,0.5c-0.1,0.3-0.1,0.7,0.1,0.9l1.4,1.6l-1.4,1.6c-0.2,0.3-0.3,0.6-0.1,0.9c0.1,0.3,0.5,0.5,0.8,0.5h2.7
		l-1.9,1.9c-0.2,0.2-0.3,0.6-0.2,0.9c0.1,0.3,0.4,0.6,0.8,0.6l2.1,0.1l0.1,2.1c0,0.3,0.2,0.6,0.6,0.8c0.1,0,0.2,0.1,0.3,0.1
		c0.2,0,0.5-0.1,0.6-0.3l1.9-1.9V28c0,0.3,0.2,0.7,0.5,0.8c0.3,0.1,0.7,0.1,1-0.1l1.6-1.4l1.6,1.4c0.2,0.1,0.4,0.2,0.6,0.2
		c0.1,0,0.2,0,0.4-0.1c0.3-0.1,0.5-0.5,0.5-0.8v-2.7l1.9,1.9c0.2,0.2,0.4,0.3,0.6,0.3c0.1,0,0.2,0,0.3-0.1c0.3-0.1,0.6-0.4,0.6-0.8
		l0.1-2.1l2.1-0.1c0.3,0,0.6-0.2,0.8-0.6c0.1-0.3,0-0.7-0.2-0.9l-1.9-1.9h2.7c0.3,0,0.7-0.2,0.8-0.5c0.1-0.3,0.1-0.7-0.1-0.9
		L129.4,18z M118.8,14.9L118.8,14.9L118.8,14.9L118.8,14.9L118.8,14.9z M121.3,21L121.3,21L121.3,21L121.3,21L121.3,21z M127.5,18.6
		l0.6,0.7h-2.5l-0.9-0.9h-2.5c-0.1,0.4-0.2,0.7-0.4,1l1.7,1.7h1.3l1.8,1.8l-0.9,0.1c-0.4,0-0.8,0.4-0.8,0.8l-0.1,0.9l-1.8-1.8v-1.3
		l-1.7-1.7c-0.3,0.2-0.6,0.4-1,0.4v2.5l0.9,0.9V26l-0.7-0.6c-0.2-0.1-0.4-0.2-0.6-0.2c-0.2,0-0.4,0.1-0.6,0.2l-0.7,0.6v-2.5l0.9-0.9
		v-2.5c-0.4-0.1-0.7-0.2-1-0.4l-1.7,1.7v1.3l-1.8,1.8l-0.1-0.9c0-0.4-0.4-0.8-0.8-0.8l-0.9-0.1l1.8-1.8h1.3l1.7-1.7
		c-0.2-0.3-0.4-0.6-0.4-1h-2.5l-0.9,0.9H112l0.6-0.7c0.3-0.3,0.3-0.8,0-1.2l-0.6-0.7h2.5l0.9,0.9h2.5c0.1-0.4,0.2-0.7,0.4-1
		l-1.7-1.7h-1.3l-1.8-1.8l0.9-0.1c0.4,0,0.8-0.4,0.8-0.8l0.1-0.9l1.8,1.8v1.3l1.7,1.7c0.3-0.2,0.6-0.4,1-0.4v-2.5l-0.9-1V9.9
		l0.7,0.6c0.3,0.3,0.8,0.3,1.2,0l0.7-0.6v2.5l-0.9,1v2.5c0.4,0.1,0.7,0.2,1,0.4l1.7-1.7v-1.3l1.8-1.8l0.1,0.9c0,0.4,0.4,0.8,0.8,0.8
		l0.9,0.1l-1.8,1.8h-1.3l-1.7,1.7c0.2,0.3,0.4,0.6,0.4,1h2.5l0.9-0.9h2.5l-0.6,0.7C127.2,17.7,127.2,18.2,127.5,18.6z M123.1,19.2
		L123.1,19.2L123.1,19.2L123.1,19.2L123.1,19.2z M118.8,21L118.8,21L118.8,21L118.8,21L118.8,21z M117,19.2L117,19.2L117,19.2
		L117,19.2L117,19.2z M117,16.7L117,16.7L117,16.7L117,16.7L117,16.7z M121.3,14.9L121.3,14.9L121.3,14.9L121.3,14.9L121.3,14.9z
		 M123.1,16.7L123.1,16.7L123.1,16.7L123.1,16.7L123.1,16.7z"/>
</g>
</svg>
